<?xml version="1.0" encoding="UTF-8"?>
<svg width="100px" height="100px" viewBox="0 0 3800 3800" version="1.1" xmlns="http://www.w3.org/2000/svg" xmlns:xlink="http://www.w3.org/1999/xlink">
    <title>Group 20</title>
    <g id="giorgio's-logo" stroke="none" stroke-width="1" fill="none" fill-rule="evenodd">
        <g id="Group-20">
            <g id="Group-18">
                <circle id="Oval" fill="#0089DC" cx="1920" cy="1920" r="1920"></circle>
                <g id="Group-17" transform="translate(931, 1131)">
                    <rect id="Rectangle" fill="#FFFFFF" x="0" y="328" width="1978" height="1251" rx="157"></rect>
                    <path d="M0,322.661264 C0,216.020529 0,152.291734 0,131.474878 C0,100.249595 20.4761918,58.2594033 38.9367545,39.4424635 C57.3973172,20.6255237 98.1644938,0 122.842718,0 C147.520943,0 828.639945,0 868.673509,0 C908.707074,0 1024.42053,161.604538 1071.03495,161.604538 C1117.64938,161.604538 1785.60666,161.604538 1808.63967,161.604538 C1831.67268,161.604538 1893.64244,187.899514 1934.77282,228.437601 C1962.19307,255.462993 1976.26879,291.983793 1977,338 C1946.40926,310.78666 1922.46225,293.074072 1905.15895,284.862237 C1887.85565,276.650401 1864.09143,271.720093 1833.8663,270.071313 L122.842718,270.071313 C87.0844173,273.797417 62.0405893,278.727725 47.7112344,284.862237 C33.3818795,290.996748 17.4781347,303.596424 0,322.661264 Z" id="Path-36" fill="#FFFFFF"></path>
                    <g id="Group-16" transform="translate(726, 691)" fill="#0089DC" stroke="#0089DC">
                        <path d="M331.708333,0.5 C333.779401,0.5 335.654401,1.33946609 337.011634,2.69669914 C338.368867,4.05393219 339.208333,5.92893219 339.208333,8 L339.208333,518 C339.208333,520.071068 338.368867,521.946068 337.011634,523.303301 C335.654401,524.660534 333.779401,525.5 331.708333,525.5 L194.291667,525.5 C192.220599,525.5 190.345599,524.660534 188.988366,523.303301 C187.631133,521.946068 186.791667,520.071068 186.791667,518 L186.791667,8 C186.791667,5.92893219 187.631133,4.05393219 188.988366,2.69669914 C190.345599,1.33946609 192.220599,0.5 194.291667,0.5 Z" id="Rectangle" transform="translate(263, 263) rotate(90) translate(-263, -263)"></path>
                        <rect id="Rectangle" x="186.791667" y="0.5" width="152.416667" height="525" rx="8"></rect>
                    </g>
                </g>
            </g>
           
        </g>
    </g>
</svg>